<svg width="670" height="509" viewBox="0 0 670 509" fill="none" xmlns="http://www.w3.org/2000/svg">
<g clip-path="url(#clip0_42_828)">
<path d="M619.906 462.653C597.954 479.367 571.209 496.299 544.915 504.282C537.335 506.652 529.513 508.165 521.596 508.793C514.194 509.388 506.745 508.81 499.523 507.08C480.546 502.361 462.944 494.096 445.913 484.441C440.349 481.281 434.849 477.977 429.381 474.6C420.455 469.085 411.618 463.377 402.757 457.805C401.43 456.961 400.111 456.133 398.785 455.313H398.777C396.638 453.97 394.493 452.646 392.344 451.341C391.966 451.108 391.588 450.883 391.202 450.65C387.141 448.19 383.011 445.786 378.811 443.438C378.296 443.157 377.781 442.867 377.267 442.586C369.14 438.079 360.788 433.992 352.243 430.342C346.63 427.978 340.945 425.847 335.204 424.03H335.196C333.001 423.339 330.797 422.688 328.586 422.093C321.955 420.274 315.198 418.952 308.371 418.137C298.963 416.999 289.447 417.074 280.058 418.363C279.423 418.451 278.796 418.539 278.161 418.644C252.751 422.712 229.56 436.428 204.038 439.66C203.21 439.764 202.39 439.861 201.561 439.933C201.208 439.965 200.854 440.005 200.5 440.029C193.083 440.664 185.619 440.481 178.242 439.483C157.633 436.765 137.562 428.332 119.494 417.703C77.2544 392.853 42.9994 354.656 22.173 310.422C18.5967 302.841 15.4215 295.077 12.6605 287.163C4.94098 265.217 0.689826 242.202 0.0600774 218.946C-1.8939 138.26 43.9643 57.3087 115.964 20.8166C187.972 -15.6755 282.696 -3.60792 340.768 52.4527C375.996 86.4606 396.38 132.544 422.892 173.715C449.403 214.878 487.084 254.2 535.684 260.198C560.442 263.253 586.351 257.344 610.08 265.03C623.219 269.291 634.428 277.443 643.458 287.83C649.529 294.879 654.61 302.723 658.56 311.145C661.454 317.234 663.803 323.567 665.58 330.071C665.909 331.269 666.215 332.467 666.512 333.664C678.333 381.935 659.444 432.536 619.906 462.653Z" fill="#111637"/>
<path d="M224.479 375.27H148.892C137.568 375.27 128.388 384.448 128.388 395.771V395.771C128.388 407.093 137.568 416.272 148.892 416.272H224.479C235.803 416.272 244.983 407.093 244.983 395.771C244.983 384.448 235.803 375.27 224.479 375.27Z" fill="#3F3D56"/>
<path d="M201.561 405.821V439.933C193.797 440.684 185.972 440.533 178.242 439.483V405.821H201.561Z" fill="#3F3D56"/>
<path d="M280.058 418.362C279.423 418.451 278.796 418.539 278.161 418.644C252.751 422.712 229.56 436.427 204.038 439.659C203.21 439.764 202.39 439.86 201.561 439.933C201.208 439.965 200.854 440.005 200.5 440.029C194.268 433.927 188.036 427.431 182.182 420.702C179.006 417.06 175.934 413.346 173.048 409.583C165.553 399.871 159.201 389.886 155.003 380.077C155.43 375.374 152.503 364.497 151.104 356.167L151.096 356.159C150.5 352.662 150.179 349.623 150.476 347.669C152.181 336.398 161.388 337.692 164.219 326.646C166.772 324.527 169.49 322.615 172.348 320.929C172.822 320.648 173.305 320.367 173.804 320.085L204.52 298.861L216.26 310.373L234.128 327.9L253.491 346.882L237.055 363.484C237.055 363.484 250.789 379.314 266.847 400.418C271.157 406.086 275.636 412.14 280.058 418.362Z" fill="#2F2E41"/>
<path d="M544.915 405.821V504.283C537.335 506.652 529.513 508.165 521.596 508.793V405.821H544.915Z" fill="#3F3D56"/>
<path d="M575.069 397.781H499.483C488.159 397.781 478.979 406.959 478.979 418.282V418.282C478.979 429.604 488.159 438.783 499.483 438.783H575.069C586.394 438.783 595.574 429.604 595.574 418.282C595.574 406.959 586.394 397.781 575.069 397.781Z" fill="#3F3D56"/>
<path d="M391.202 450.65C387.141 448.19 383.011 445.786 378.811 443.438C378.296 443.157 377.781 442.867 377.267 442.586L380.033 441.404L387.495 438.196L387.567 438.164L387.648 438.438L391.202 450.65Z" fill="#FFB6B6"/>
<path d="M402.757 457.805C401.43 456.961 400.111 456.133 398.785 455.313H398.777C396.638 453.97 394.493 452.646 392.344 451.341C391.966 451.108 391.588 450.883 391.202 450.65C387.141 448.19 383.011 445.786 378.811 443.438C378.296 443.157 377.781 442.867 377.267 442.586C369.141 438.079 360.788 433.992 352.243 430.342C346.63 427.978 340.945 425.847 335.204 424.03H335.196L330.685 416.481L310.381 382.481L305.918 375.012C305.918 375.012 290.697 379.515 269.155 383.832C261.314 385.408 252.646 386.951 243.552 388.254C233.83 389.637 223.634 390.738 213.502 391.269C208.67 391.526 203.853 391.655 199.109 391.614C186.846 391.534 175.066 390.384 164.749 387.651C161.308 384.419 150.935 380.021 143.505 375.993H143.497C140.377 374.305 137.788 372.689 136.429 371.25C128.597 362.969 135.287 356.513 128.323 347.477C128.229 344.161 128.399 340.844 128.83 337.556C128.902 337.009 128.974 336.454 129.063 335.891L131.258 298.619L147.565 296.465L172.38 293.185L199.261 289.631L202.221 312.801C202.221 312.801 223.152 311.74 249.671 312.094C292.265 312.673 349.26 316.918 356.979 335.136C357.703 336.848 358.427 338.577 359.15 340.305C360.871 344.438 362.576 348.591 364.264 352.767C370.384 367.881 376.221 383.141 381.553 397.564C384.866 406.536 387.986 415.187 390.856 423.283C393.164 429.795 395.303 435.953 397.257 441.621C399.042 446.799 400.658 451.566 402.098 455.843C402.323 456.511 402.54 457.17 402.757 457.805Z" fill="#2F2E41"/>
<path d="M252.746 231.981L201.239 188.244L234.75 154.335L258.13 192.622L344.791 209.801C347.397 207.84 350.517 206.679 353.771 206.461C357.025 206.243 360.273 206.975 363.117 208.57C365.962 210.165 368.281 212.553 369.792 215.443C371.302 218.333 371.939 221.6 371.625 224.845C371.311 228.091 370.059 231.175 368.022 233.721C365.985 236.268 363.251 238.167 360.153 239.187C357.055 240.206 353.728 240.303 350.576 239.464C347.425 238.626 344.585 236.889 342.404 234.465L252.746 231.981Z" fill="#A0616A"/>
<path d="M155.718 130.763C149.766 150.124 206.457 196.302 206.457 196.302C207.087 191.654 239.229 231.736 241.416 228.106C247.631 217.789 254.47 192.288 261.645 189.028C265.748 187.164 242.209 161.256 242.209 161.256C242.209 161.256 230.201 145.373 214.348 125.243C209.971 119.469 204.205 114.896 197.585 111.949C190.965 109.003 183.707 107.779 176.487 108.391C176.487 108.391 161.671 111.401 155.718 130.763Z" fill="#3F3D56"/>
<path d="M180.784 87.9003C200.024 87.9003 215.621 72.3058 215.621 53.0692C215.621 33.8325 200.024 18.238 180.784 18.238C161.544 18.238 145.947 33.8325 145.947 53.0692C145.947 72.3058 161.544 87.9003 180.784 87.9003Z" fill="#A0616A"/>
<path d="M198.202 110.921C205.707 115.382 210.197 123.579 212.774 131.92C217.546 147.362 220.418 163.328 221.327 179.464L224.049 227.774L257.762 330.639C228.544 355.358 118.717 336.257 118.717 336.257C118.717 336.257 115.346 335.134 118.717 331.763C122.088 328.392 125.37 331.379 121.999 328.008C118.628 324.637 120.952 328.392 122.076 325.021C123.199 321.651 122.076 323.898 120.952 322.774C119.828 321.651 129.652 311.538 129.652 311.538L120.661 252.493L109.424 133.393C122.909 116.539 150.03 106.604 150.03 106.604L157.037 93.9923L192.076 96.7949L198.202 110.921Z" fill="#3F3D56"/>
<path d="M209.501 34.564C212.209 36.5831 214.215 39.4005 215.237 42.6194C215.629 37.359 215.654 32.0777 215.312 26.8138C214.901 23.1149 212.296 22.2829 209.28 21.3188C206.557 20.4478 203.476 19.4639 202.648 15.8731C191.697 5.22177 172.634 5.75887 159.588 9.47421C152.409 11.5187 148.278 14.1455 147.908 15.6842L147.832 16.001L147.54 16.1467C142.007 18.913 140.93 27.6485 141.001 34.4894C141.136 47.3781 145.587 62.0165 148.094 63.2056C148.227 63.2686 148.26 63.2439 148.318 63.196C152.093 60.1793 156.7 63.4253 158.724 65.1899C159.918 57.1793 163.762 49.7998 169.643 44.23C175.524 38.6602 183.102 35.2214 191.166 34.4628C193.8 34.2083 196.413 33.7702 198.986 33.1519C200.291 32.8143 201.632 32.6383 202.98 32.6278C205.301 32.5925 207.576 33.2682 209.501 34.564Z" fill="#2F2E41"/>
<path d="M165.605 284.458L154.948 279.001C154.377 278.594 153.972 277.996 153.806 277.315C153.64 276.634 153.724 275.915 154.044 275.292C154.363 274.668 154.897 274.18 155.547 273.916C156.196 273.653 156.919 273.632 157.583 273.858L168.24 279.315C168.811 279.721 169.216 280.32 169.382 281.001C169.548 281.682 169.464 282.4 169.144 283.024C168.825 283.648 168.291 284.136 167.642 284.399C166.992 284.662 166.269 284.683 165.605 284.458Z" fill="#842BFF"/>
<path d="M129.739 269.838L112.209 204.586L159.055 195.72L156.536 240.508L218.088 303.876C221.347 303.742 224.574 304.56 227.375 306.229C230.177 307.898 232.433 310.345 233.867 313.274C235.302 316.202 235.853 319.485 235.454 322.721C235.055 325.957 233.723 329.007 231.62 331.5C229.517 333.992 226.734 335.819 223.611 336.757C220.487 337.695 217.158 337.705 214.03 336.784C210.901 335.863 208.108 334.053 205.991 331.572C203.874 329.092 202.524 326.049 202.107 322.815L129.739 269.838Z" fill="#A0616A"/>
<path d="M107.415 131.426C91.5139 143.977 111.923 214.182 111.923 214.182C115.083 210.715 118.755 261.958 122.617 260.213C133.595 255.254 153.714 238.154 161.471 239.547C165.907 240.345 161.259 205.653 161.259 205.653C161.259 205.653 160.405 185.761 158.798 160.19C158.478 152.952 156.332 145.913 152.559 139.728C148.786 133.542 143.509 128.412 137.219 124.814C137.219 124.814 123.317 118.874 107.415 131.426Z" fill="#3F3D56"/>
<path d="M658.56 311.145L22.173 310.422C18.5966 302.841 15.4214 295.077 12.6604 287.163L643.459 287.83C649.529 294.879 654.61 302.723 658.56 311.145Z" fill="#3F3D56"/>
<path d="M455.868 479.834C452.579 481.426 449.261 482.961 445.913 484.44C440.349 481.281 434.849 477.976 429.381 474.6L449.66 465.692L455.868 479.834Z" fill="#FFB6B6"/>
<path d="M603.728 369.047C600.431 373.469 597.029 377.802 593.523 382.047C590.291 385.962 586.973 389.803 583.569 393.568C582.161 395.128 580.738 396.679 579.283 398.215C576.605 401.085 573.868 403.907 571.073 406.681C566.039 408.265 555.843 411.054 544.915 413.659C536.963 415.548 528.624 417.341 521.596 418.483C517.662 419.189 513.682 419.614 509.687 419.753C504.943 419.793 500.126 419.665 495.294 419.408C489.842 419.118 484.382 418.668 478.986 418.089C464.955 416.618 451.365 414.326 439.641 411.971C435.348 411.119 431.311 410.25 427.596 409.406C420.56 407.822 414.674 406.343 410.412 405.218C405.612 403.963 402.878 403.151 402.878 403.151L390.856 423.283L384.616 433.726L380.033 441.404L378.811 443.438C378.296 443.157 377.782 442.867 377.267 442.586C369.141 438.079 360.788 433.992 352.243 430.341C346.63 427.978 340.945 425.847 335.204 424.03H335.196C333.001 423.339 330.797 422.688 328.586 422.093C329.278 420.236 329.977 418.365 330.685 416.481C332.004 412.968 333.349 409.422 334.722 405.845C337.689 398.094 340.76 390.232 343.921 382.409C346.51 375.985 349.147 369.586 351.817 363.275C353.047 360.364 355.548 357.808 359.046 355.564C360.718 354.51 362.461 353.576 364.265 352.767C374.276 348.208 389.023 345.242 405.274 343.336C406.617 343.183 407.968 343.031 409.327 342.886C422.779 341.471 437.052 340.739 450.4 340.402C457.083 340.233 463.532 340.169 469.53 340.16C471.468 340.16 473.352 340.166 475.183 340.177H475.191C480.136 340.201 484.688 340.273 488.692 340.353C489.472 340.369 490.228 340.394 490.968 340.41H490.976C491.474 340.418 491.965 340.434 492.447 340.442C501.204 340.667 506.575 340.94 506.575 340.94L508.658 324.604L509.084 321.307L509.486 318.172V318.164L509.535 317.77L509.864 317.762L515.654 317.649L564.318 316.701L590.902 316.178L586.689 334.235L579.733 364.03C580.441 368.742 603.969 365.051 603.728 369.047Z" fill="#2F2E41"/>
<path d="M461.867 476.859C459.881 477.872 457.879 478.869 455.868 479.834C452.58 481.426 449.261 482.961 445.914 484.44C440.349 481.281 434.849 477.977 429.381 474.6C420.456 469.085 411.618 463.376 402.757 457.805C401.43 456.961 400.112 456.133 398.785 455.313H398.777C395.126 449.894 391.403 444.25 387.648 438.437C387.592 438.357 387.543 438.277 387.495 438.196C386.53 436.717 385.571 435.227 384.616 433.726C378.61 424.32 372.571 414.511 366.709 404.494L381.553 397.564L409.15 384.684L413.91 382.465L427.596 409.406L439.802 433.437L442.52 438.783L461.867 476.859Z" fill="#2F2E41"/>
<path d="M466.026 347.515L536.386 279.673L555.887 224.465L527.122 211.959C512.347 226.11 496.376 270.186 496.376 270.186L447.958 331.773C447.581 331.902 447.205 332.039 446.833 332.204C444.652 333.165 442.757 334.673 441.329 336.581C439.901 338.489 438.99 340.733 438.683 343.096C438.376 345.459 438.684 347.862 439.578 350.071C440.471 352.28 441.919 354.222 443.782 355.708C445.645 357.194 447.86 358.175 450.213 358.555C452.566 358.935 454.977 358.702 457.213 357.878C459.45 357.055 461.436 355.668 462.979 353.853C464.523 352.037 465.573 349.854 466.026 347.515Z" fill="#FFB8B8"/>
<path d="M519.028 218.123L555.515 229.704L555.653 229.681C569.233 227.407 580.502 205.231 587.563 187.028C589.887 181.024 589.843 174.362 587.442 168.388C585.04 162.415 580.46 157.576 574.627 154.849C570.311 152.867 565.526 152.132 560.813 152.727C556.1 153.321 551.648 155.222 547.959 158.214L529.223 173.521L519.028 218.123Z" fill="#842BFF"/>
<path d="M603.581 369.861L603.794 369.578C615.178 354.483 599.608 317.1 597.254 311.679L607.839 308.544L605.994 288.393L605.106 279.408L613.336 271.594L613.363 271.395L619.023 231.122L626.429 204.467C629.22 194.391 629.279 183.753 626.6 173.646C623.921 163.539 618.599 154.327 611.183 146.956L596.043 131.927L577.906 103.542L547.495 102.757L536.559 122.18C526.39 124.255 517.27 129.831 510.79 137.938C504.31 146.044 500.879 156.166 501.096 166.542L502.125 218.249L491.213 282.315L490.907 293.953L480.197 305.253L482.177 316.677L474.166 319.867L470.245 336.1C468.748 337.973 458.862 350.467 458.772 353.95C458.759 354.473 459.132 354.989 459.946 355.571C466.345 360.148 502.111 370.067 518.208 364.104C535.355 357.758 602.555 369.677 603.232 369.798L603.581 369.861Z" fill="#842BFF"/>
<path d="M560.045 94.0554C582.295 94.0554 600.333 76.0207 600.333 53.7737C600.333 31.5268 582.295 13.4921 560.045 13.4921C537.794 13.4921 519.756 31.5268 519.756 53.7737C519.756 76.0207 537.794 94.0554 560.045 94.0554Z" fill="#FFB8B8"/>
<path d="M555.129 94.5944C561.368 94.6917 567.604 94.256 573.769 93.292C579.88 92.0496 593.55 82.0338 597.36 76.0068C600.191 71.5288 602.002 64.5361 603.022 59.4588C604.397 52.7399 604.344 45.8073 602.869 39.11C601.393 32.4126 598.527 26.0998 594.456 20.5804C592.891 18.2718 590.731 16.4288 588.205 15.2466C587.981 15.1591 587.751 15.0815 587.518 15.0152C583.837 14.0468 580.53 12.0005 578.02 9.13906C577.534 8.56029 577.006 8.0173 576.441 7.51434C573.605 5.12124 570.243 3.43321 566.629 2.58821C560.796 1.02738 552.354 2.57671 541.539 7.19763C536.106 9.51927 530.163 8.67906 525.592 7.6876C525.336 7.63809 525.071 7.65656 524.824 7.74119C524.577 7.82582 524.356 7.97366 524.184 8.16999C522.239 9.99557 519.675 11.0174 517.007 11.0302C515.373 11.102 513.659 13.364 511.587 16.3137C511.117 16.9833 510.568 17.7648 510.172 18.2401L510.119 17.3269L509.195 18.3456C507.742 19.9467 506.718 21.8894 506.219 23.9927C505.719 26.096 505.76 28.2915 506.337 30.3748C506.914 32.4581 508.01 34.3615 509.521 35.9076C511.032 37.4538 512.91 38.5924 514.98 39.2175C516.624 39.6547 518.308 39.923 520.006 40.0182C521.034 40.1107 522.098 40.2065 523.118 40.3833C526.39 41.0533 529.433 42.5603 531.949 44.7571C534.465 46.9539 536.369 49.7655 537.473 52.9173C537.735 53.6459 538.16 54.3046 538.716 54.8428C539.273 55.3809 539.945 55.7841 540.682 56.0211C541.419 56.258 542.2 56.3226 542.966 56.2096C543.732 56.0967 544.462 55.8093 545.099 55.3697C546.161 54.5427 547.407 53.9849 548.732 53.7438C550.056 53.5027 551.419 53.5854 552.705 53.9849C553.816 54.6025 554.68 55.5832 555.154 56.7626C555.73 58.0765 556.684 59.1893 557.894 59.9589C562.035 62.0935 562.321 71.5498 560.833 79.4327C559.4 87.0312 556.566 92.5281 553.942 92.7998C551.922 93.0087 551.691 93.1522 551.545 93.5093L551.414 93.8291L551.641 94.1282C552.757 94.5325 553.947 94.6916 555.129 94.5944Z" fill="#2F2E41"/>
<path d="M529.033 205.944L513.499 174.979C490.951 176.519 446.199 202.585 446.199 202.585L361.528 220.534C359.019 219.57 356.301 219.284 353.647 219.704C350.993 220.124 348.496 221.236 346.409 222.927C344.321 224.619 342.715 226.831 341.754 229.34C340.793 231.849 340.51 234.567 340.933 237.22C341.357 239.873 342.472 242.368 344.166 244.453C345.86 246.539 348.074 248.141 350.585 249.099C353.095 250.057 355.814 250.337 358.467 249.91C361.12 249.484 363.614 248.366 365.698 246.67L473.405 238.951L529.033 205.944Z" fill="#FFB8B8"/>
<path d="M522.768 211.029L563.338 180.884L570.484 155.136C571.869 150.076 571.81 144.729 570.315 139.701C568.82 134.672 565.948 130.162 562.024 126.68C556.673 121.995 549.742 119.517 542.633 119.746C535.524 119.976 528.767 122.895 523.729 127.915C508.462 143.151 491.049 164.407 494.789 179.147L494.827 179.296L522.768 211.029Z" fill="#842BFF"/>
<path d="M472.545 291.657H363.991V306.129H472.545V291.657Z" fill="white"/>
<path d="M195.128 291.657H86.574V306.129H195.128V291.657Z" fill="white"/>
<path d="M207.804 222.064V290.968C207.805 291.846 208.154 292.688 208.775 293.308C209.396 293.929 210.238 294.278 211.117 294.279H313.242C314.12 294.278 314.962 293.929 315.583 293.308C316.204 292.688 316.553 291.846 316.554 290.968V222.064C316.552 221.187 316.202 220.346 315.581 219.726C314.961 219.106 314.119 218.757 313.242 218.756H211.117C210.239 218.757 209.398 219.106 208.777 219.726C208.156 220.346 207.807 221.187 207.804 222.064Z" fill="#3F3D56"/>
<path d="M210.2 222.921V290.117C210.201 290.587 210.388 291.036 210.72 291.368C211.051 291.7 211.501 291.886 211.97 291.887H312.392C312.861 291.886 313.311 291.7 313.642 291.368C313.974 291.036 314.161 290.587 314.162 290.117V222.921C314.162 222.452 313.975 222.001 313.644 221.669C313.312 221.336 312.861 221.149 312.392 221.148H211.97C211.501 221.149 211.05 221.336 210.718 221.669C210.387 222.001 210.2 222.452 210.2 222.921Z" fill="#842BFF"/>
<path d="M205.669 304.405C205.856 304.64 206.093 304.829 206.364 304.959C206.635 305.088 206.931 305.154 207.231 305.153H316.583C316.882 305.153 317.178 305.086 317.448 304.957C317.717 304.828 317.955 304.641 318.144 304.408C318.332 304.176 318.466 303.905 318.537 303.614C318.607 303.324 318.612 303.021 318.55 302.728L316.853 294.667C316.782 294.338 316.631 294.032 316.412 293.777C316.193 293.522 315.914 293.325 315.6 293.205C315.372 293.116 315.13 293.07 314.886 293.071H208.922C208.678 293.07 208.435 293.116 208.208 293.205C207.894 293.325 207.615 293.522 207.396 293.777C207.177 294.032 207.025 294.338 206.955 294.667L205.258 302.728C205.197 303.021 205.203 303.323 205.274 303.613C205.345 303.903 205.48 304.174 205.669 304.405Z" fill="#2F2E41"/>
<path d="M311.134 296.543H313.717C313.934 296.543 314.109 296.367 314.109 296.15V294.915C314.109 294.698 313.934 294.523 313.717 294.523H311.134C310.917 294.523 310.741 294.698 310.741 294.915V296.15C310.741 296.367 310.917 296.543 311.134 296.543Z" fill="#3F3D56"/>
<path d="M304.398 296.543H306.981C307.198 296.543 307.373 296.367 307.373 296.15V294.915C307.373 294.698 307.198 294.523 306.981 294.523H304.398C304.181 294.523 304.005 294.698 304.005 294.915V296.15C304.005 296.367 304.181 296.543 304.398 296.543Z" fill="#3F3D56"/>
<path d="M297.662 296.543H300.245C300.461 296.543 300.637 296.367 300.637 296.15V294.915C300.637 294.698 300.461 294.523 300.245 294.523H297.662C297.445 294.523 297.269 294.698 297.269 294.915V296.15C297.269 296.367 297.445 296.543 297.662 296.543Z" fill="#3F3D56"/>
<path d="M290.926 296.543H293.509C293.726 296.543 293.901 296.367 293.901 296.15V294.915C293.901 294.698 293.726 294.523 293.509 294.523H290.926C290.709 294.523 290.533 294.698 290.533 294.915V296.15C290.533 296.367 290.709 296.543 290.926 296.543Z" fill="#3F3D56"/>
<path d="M284.19 296.543H286.773C286.99 296.543 287.165 296.367 287.165 296.15V294.915C287.165 294.698 286.99 294.523 286.773 294.523H284.19C283.973 294.523 283.797 294.698 283.797 294.915V296.15C283.797 296.367 283.973 296.543 284.19 296.543Z" fill="#3F3D56"/>
<path d="M277.454 296.543H280.037C280.253 296.543 280.429 296.367 280.429 296.15V294.915C280.429 294.698 280.253 294.523 280.037 294.523H277.454C277.237 294.523 277.061 294.698 277.061 294.915V296.15C277.061 296.367 277.237 296.543 277.454 296.543Z" fill="#3F3D56"/>
<path d="M270.718 296.543H273.301C273.518 296.543 273.693 296.367 273.693 296.15V294.915C273.693 294.698 273.518 294.523 273.301 294.523H270.718C270.501 294.523 270.325 294.698 270.325 294.915V296.15C270.325 296.367 270.501 296.543 270.718 296.543Z" fill="#3F3D56"/>
<path d="M263.982 296.543H266.565C266.782 296.543 266.957 296.367 266.957 296.15V294.915C266.957 294.698 266.782 294.523 266.565 294.523H263.982C263.765 294.523 263.589 294.698 263.589 294.915V296.15C263.589 296.367 263.765 296.543 263.982 296.543Z" fill="#3F3D56"/>
<path d="M257.246 296.543H259.829C260.046 296.543 260.221 296.367 260.221 296.15V294.915C260.221 294.698 260.046 294.523 259.829 294.523H257.246C257.029 294.523 256.853 294.698 256.853 294.915V296.15C256.853 296.367 257.029 296.543 257.246 296.543Z" fill="#3F3D56"/>
<path d="M250.51 296.543H253.093C253.31 296.543 253.485 296.367 253.485 296.15V294.915C253.485 294.698 253.31 294.523 253.093 294.523H250.51C250.293 294.523 250.117 294.698 250.117 294.915V296.15C250.117 296.367 250.293 296.543 250.51 296.543Z" fill="#3F3D56"/>
<path d="M243.774 296.543H246.357C246.574 296.543 246.749 296.367 246.749 296.15V294.915C246.749 294.698 246.574 294.523 246.357 294.523H243.774C243.557 294.523 243.381 294.698 243.381 294.915V296.15C243.381 296.367 243.557 296.543 243.774 296.543Z" fill="#3F3D56"/>
<path d="M237.038 296.543H239.621C239.838 296.543 240.013 296.367 240.013 296.15V294.915C240.013 294.698 239.838 294.523 239.621 294.523H237.038C236.821 294.523 236.645 294.698 236.645 294.915V296.15C236.645 296.367 236.821 296.543 237.038 296.543Z" fill="#3F3D56"/>
<path d="M230.302 296.543H232.885C233.102 296.543 233.277 296.367 233.277 296.15V294.915C233.277 294.698 233.102 294.523 232.885 294.523H230.302C230.085 294.523 229.909 294.698 229.909 294.915V296.15C229.909 296.367 230.085 296.543 230.302 296.543Z" fill="#3F3D56"/>
<path d="M223.566 296.543H226.149C226.366 296.543 226.542 296.367 226.542 296.15V294.915C226.542 294.698 226.366 294.523 226.149 294.523H223.566C223.349 294.523 223.174 294.698 223.174 294.915V296.15C223.174 296.367 223.349 296.543 223.566 296.543Z" fill="#3F3D56"/>
<path d="M216.83 296.543H219.413C219.63 296.543 219.805 296.367 219.805 296.15V294.915C219.805 294.698 219.63 294.523 219.413 294.523H216.83C216.613 294.523 216.437 294.698 216.437 294.915V296.15C216.437 296.367 216.613 296.543 216.83 296.543Z" fill="#3F3D56"/>
<path d="M210.094 296.543H212.677C212.894 296.543 213.069 296.367 213.069 296.15V294.915C213.069 294.698 212.894 294.523 212.677 294.523H210.094C209.877 294.523 209.701 294.698 209.701 294.915V296.15C209.701 296.367 209.877 296.543 210.094 296.543Z" fill="#3F3D56"/>
<path d="M311.214 299.91H313.796C314.013 299.91 314.189 299.735 314.189 299.518V298.282C314.189 298.066 314.013 297.89 313.796 297.89H311.214C310.997 297.89 310.821 298.066 310.821 298.282V299.518C310.821 299.735 310.997 299.91 311.214 299.91Z" fill="#3F3D56"/>
<path d="M304.477 299.91H307.06C307.277 299.91 307.453 299.735 307.453 299.518V298.282C307.453 298.066 307.277 297.89 307.06 297.89H304.477C304.261 297.89 304.085 298.066 304.085 298.282V299.518C304.085 299.735 304.261 299.91 304.477 299.91Z" fill="#3F3D56"/>
<path d="M297.742 299.91H300.324C300.541 299.91 300.717 299.735 300.717 299.518V298.282C300.717 298.066 300.541 297.89 300.324 297.89H297.742C297.525 297.89 297.349 298.066 297.349 298.282V299.518C297.349 299.735 297.525 299.91 297.742 299.91Z" fill="#3F3D56"/>
<path d="M291.006 299.91H293.588C293.805 299.91 293.981 299.735 293.981 299.518V298.282C293.981 298.066 293.805 297.89 293.588 297.89H291.006C290.789 297.89 290.613 298.066 290.613 298.282V299.518C290.613 299.735 290.789 299.91 291.006 299.91Z" fill="#3F3D56"/>
<path d="M284.269 299.91H286.852C287.069 299.91 287.245 299.735 287.245 299.518V298.282C287.245 298.066 287.069 297.89 286.852 297.89H284.269C284.053 297.89 283.877 298.066 283.877 298.282V299.518C283.877 299.735 284.053 299.91 284.269 299.91Z" fill="#3F3D56"/>
<path d="M277.533 299.91H280.116C280.333 299.91 280.509 299.735 280.509 299.518V298.282C280.509 298.066 280.333 297.89 280.116 297.89H277.533C277.317 297.89 277.141 298.066 277.141 298.282V299.518C277.141 299.735 277.317 299.91 277.533 299.91Z" fill="#3F3D56"/>
<path d="M270.798 299.91H273.38C273.597 299.91 273.773 299.735 273.773 299.518V298.282C273.773 298.066 273.597 297.89 273.38 297.89H270.798C270.581 297.89 270.405 298.066 270.405 298.282V299.518C270.405 299.735 270.581 299.91 270.798 299.91Z" fill="#3F3D56"/>
<path d="M264.061 299.91H266.644C266.861 299.91 267.037 299.735 267.037 299.518V298.282C267.037 298.066 266.861 297.89 266.644 297.89H264.061C263.845 297.89 263.669 298.066 263.669 298.282V299.518C263.669 299.735 263.845 299.91 264.061 299.91Z" fill="#3F3D56"/>
<path d="M257.326 299.91H259.908C260.125 299.91 260.301 299.735 260.301 299.518V298.282C260.301 298.066 260.125 297.89 259.908 297.89H257.326C257.109 297.89 256.933 298.066 256.933 298.282V299.518C256.933 299.735 257.109 299.91 257.326 299.91Z" fill="#3F3D56"/>
<path d="M250.59 299.91H253.172C253.389 299.91 253.565 299.735 253.565 299.518V298.282C253.565 298.066 253.389 297.89 253.172 297.89H250.59C250.373 297.89 250.197 298.066 250.197 298.282V299.518C250.197 299.735 250.373 299.91 250.59 299.91Z" fill="#3F3D56"/>
<path d="M243.854 299.91H246.437C246.653 299.91 246.829 299.735 246.829 299.518V298.282C246.829 298.066 246.653 297.89 246.437 297.89H243.854C243.637 297.89 243.461 298.066 243.461 298.282V299.518C243.461 299.735 243.637 299.91 243.854 299.91Z" fill="#3F3D56"/>
<path d="M237.118 299.91H239.7C239.917 299.91 240.093 299.735 240.093 299.518V298.282C240.093 298.066 239.917 297.89 239.7 297.89H237.118C236.901 297.89 236.725 298.066 236.725 298.282V299.518C236.725 299.735 236.901 299.91 237.118 299.91Z" fill="#3F3D56"/>
<path d="M230.381 299.91H232.964C233.181 299.91 233.357 299.735 233.357 299.518V298.282C233.357 298.066 233.181 297.89 232.964 297.89H230.381C230.165 297.89 229.989 298.066 229.989 298.282V299.518C229.989 299.735 230.165 299.91 230.381 299.91Z" fill="#3F3D56"/>
<path d="M223.646 299.91H226.229C226.445 299.91 226.621 299.735 226.621 299.518V298.282C226.621 298.066 226.445 297.89 226.229 297.89H223.646C223.429 297.89 223.253 298.066 223.253 298.282V299.518C223.253 299.735 223.429 299.91 223.646 299.91Z" fill="#3F3D56"/>
<path d="M216.91 299.91H219.492C219.709 299.91 219.885 299.735 219.885 299.518V298.282C219.885 298.066 219.709 297.89 219.492 297.89H216.91C216.693 297.89 216.517 298.066 216.517 298.282V299.518C216.517 299.735 216.693 299.91 216.91 299.91Z" fill="#3F3D56"/>
<path d="M210.173 299.91H212.756C212.973 299.91 213.149 299.735 213.149 299.518V298.282C213.149 298.066 212.973 297.89 212.756 297.89H210.173C209.957 297.89 209.781 298.066 209.781 298.282V299.518C209.781 299.735 209.957 299.91 210.173 299.91Z" fill="#3F3D56"/>
<path d="M255.305 303.951H281.464C281.68 303.951 281.856 303.776 281.856 303.559V302.323C281.856 302.107 281.68 301.931 281.464 301.931H255.305C255.088 301.931 254.912 302.107 254.912 302.323V303.559C254.912 303.776 255.088 303.951 255.305 303.951Z" fill="#3F3D56"/>
</g>
<defs>
<clipPath id="clip0_42_828">
<rect width="670" height="509" fill="white"/>
</clipPath>
</defs>
</svg>
