<svg width="60" height="76" viewBox="0 0 60 76" fill="none" xmlns="http://www.w3.org/2000/svg">
<g clip-path="url(#clip0_281_442)">
<mask id="mask0_281_442" style="mask-type:luminance" maskUnits="userSpaceOnUse" x="-1" y="-1" width="31" height="78">
<path d="M30 76.3396L9.20117 61.9408C3.35703 57.8969 -0.0859375 51.5277 -0.0859375 44.7615V7.19112C-0.0859375 3.03112 3.54665 -0.340729 8.02784 -0.340729H30V76.3396Z" fill="white"/>
</mask>
<g mask="url(#mask0_281_442)">
<path d="M-17.3505 -0.251816L-17.3505 74.0723H30L30 -0.251816H-17.3505Z" fill="#FF0000"/>
<path d="M-5.51291 68.1547V74.0735H0.405906V68.1547H-5.51291Z" fill="#842BFF"/>
<path d="M0.405914 68.1547L0.405914 74.0735H6.32473V68.1547H0.405914Z" fill="#FFB200"/>
<path d="M6.32474 68.1547V74.0735H12.2436V68.1547H6.32474Z" fill="#FFB200"/>
<path d="M12.2436 68.1547V74.0735H18.1624V68.1547H12.2436Z" fill="#842BFF"/>
<path d="M18.1624 68.1547V74.0735H24.0812V68.1547H18.1624Z" fill="#F9FFB9"/>
<path d="M24.0812 68.1547V74.0735H30V68.1547H24.0812Z" fill="#FF9A00"/>
<path d="M-5.51291 62.2347V68.1535H0.405906V62.2347H-5.51291Z" fill="#FF9A00"/>
<path d="M0.405914 62.2359L0.405914 68.1547H6.32473V62.2359H0.405914Z" fill="#FF0000"/>
<path d="M6.32474 62.2359V68.1547H12.2436V62.2359H6.32474Z" fill="#842BFF"/>
<path d="M12.2436 62.2359V68.1547H18.1624V62.2359H12.2436Z" fill="#FFD144"/>
<path d="M18.1624 62.2359V68.1547H24.0812V62.2359H18.1624Z" fill="#FF9A00"/>
<path d="M24.0812 62.2359V68.1547H30V62.2359H24.0812Z" fill="#FF7600"/>
<path d="M-5.51291 56.3159V62.2347H0.405906V56.3159H-5.51291Z" fill="#FFB200"/>
<path d="M0.405914 56.3159L0.405914 62.2347H6.32473V56.3159H0.405914Z" fill="#842BFF"/>
<path d="M6.32474 56.3171V62.2359H12.2436V56.3171H6.32474Z" fill="#FF7600"/>
<path d="M12.2436 56.3171V62.2359H18.1624V56.3171H12.2436Z" fill="#FF9A00"/>
<path d="M18.1624 56.3171V62.2359H24.0812V56.3171H18.1624Z" fill="#FFD144"/>
<path d="M24.0812 56.3171V62.2359H30V56.3171H24.0812Z" fill="#FF7600"/>
<path d="M-5.51291 50.397V56.3159H0.405906V50.397H-5.51291Z" fill="#FF7600"/>
<path d="M0.405914 50.3971L0.405914 56.3159H6.32473V50.3971H0.405914Z" fill="#FF9A00"/>
<path d="M6.32474 50.3971V56.3159H12.2436V50.3971H6.32474Z" fill="#842BFF"/>
<path d="M12.2436 50.3982V56.317H18.1624V50.3982H12.2436Z" fill="#FF7600"/>
<path d="M18.1624 50.3982V56.317H24.0812V50.3982H18.1624Z" fill="#FF9A00"/>
<path d="M24.0812 50.3982V56.317H30V50.3982H24.0812Z" fill="#842BFF"/>
<path d="M-5.51291 44.4783V50.3971H0.405906V44.4783H-5.51291Z" fill="#FF0000"/>
<path d="M6.32474 38.5594V44.4782H12.2436V38.5594H6.32474Z" fill="#FF0000"/>
<path d="M6.32355 32.6406V38.5594H12.2424V32.6406H6.32355Z" fill="#842BFF"/>
<path d="M12.2424 32.6406V38.5594H18.1612V32.6406H12.2424Z" fill="#FF0000"/>
<path d="M-5.51407 32.6406V38.5594H0.404743V32.6406H-5.51407Z" fill="#842BFF"/>
<path d="M0.405914 44.4782L0.405914 50.3971H6.32473V44.4782H0.405914Z" fill="#842BFF"/>
<path d="M6.32474 44.4782V50.3971H12.2436V44.4782H6.32474Z" fill="#FF7600"/>
<path d="M12.2436 44.4782V50.3971H18.1624V44.4782H12.2436Z" fill="#842BFF"/>
<path d="M12.2436 38.5594V44.4782H18.1624V38.5594H12.2436Z" fill="#842BFF"/>
<path d="M18.1624 44.4794V50.3983H24.0812V44.4794H18.1624Z" fill="#FF9A00"/>
<path d="M24.0812 44.4794V50.3983H30V44.4794H24.0812Z" fill="#FF7600"/>
<path d="M-5.51288 74.0735V79.9923H0.405937V74.0735H-5.51288Z" fill="#FFD144"/>
<path d="M0.405914 74.0735L0.405914 79.9923H6.32473V74.0735H0.405914Z" fill="#F9FFB9"/>
<path d="M6.32474 74.0735V79.9923H12.2436V74.0735H6.32474Z" fill="#FFD144"/>
<path d="M12.2436 74.0735V79.9923H18.1624V74.0735H12.2436Z" fill="#F9FFB9"/>
<path d="M18.1624 74.0735V79.9923H24.0812V74.0735H18.1624Z" fill="#FF9A00"/>
<path d="M24.0812 74.0735V79.9923H30V74.0735H24.0812Z" fill="#FFB200"/>
</g>
<mask id="mask1_281_442" style="mask-type:luminance" maskUnits="userSpaceOnUse" x="30" y="-1" width="31" height="78">
<path d="M30 76.3396L50.7988 61.9408C56.643 57.8969 60.0859 51.5277 60.0859 44.7615V7.19112C60.0859 3.03112 56.4533 -0.340729 51.9721 -0.340729H30V76.3396Z" fill="white"/>
</mask>
<g mask="url(#mask1_281_442)">
<path d="M30 -0.251816L30 74.0723H77.3505V-0.251816H30Z" fill="#0000FF"/>
<path d="M30 68.1547V74.0735H35.9188V68.1547H30Z" fill="#00FFFF"/>
<path d="M35.9188 68.1547V74.0735H41.8376V68.1547H35.9188Z" fill="#6666FF"/>
<path d="M41.8376 68.1547V74.0735H47.7564V68.1547H41.8376Z" fill="#6666FF"/>
<path d="M47.7564 68.1547V74.0735H53.6753V68.1547H47.7564Z" fill="#00CCFF"/>
<path d="M53.6753 68.1547V74.0735H59.5941V68.1547H53.6753Z" fill="#00CCFF"/>
<path d="M59.5941 68.1547V74.0735H65.5129V68.1547H59.5941Z" fill="#6666FF"/>
<path d="M30 62.2359V68.1547H35.9188V62.2359H30Z" fill="#6666FF"/>
<path d="M35.9188 62.2359V68.1547H41.8376V62.2359H35.9188Z" fill="#00B1FF"/>
<path d="M41.8376 62.2359V68.1547H47.7564V62.2359H41.8376Z" fill="#00B1FF"/>
<path d="M47.7564 62.2359V68.1547H53.6753V62.2359H47.7564Z" fill="#842BFF"/>
<path d="M53.6753 62.2359V68.1547H59.5941V62.2359H53.6753Z" fill="#6666FF"/>
<path d="M59.5941 62.2359V68.1547H65.5129V62.2359H59.5941Z" fill="#00FFFF"/>
<path d="M30 56.3171V62.2359H35.9188V56.3171H30Z" fill="#6666FF"/>
<path d="M35.9188 56.3171V62.2359H41.8376V56.3171H35.9188Z" fill="#0099FF"/>
<path d="M41.8376 56.3171V62.2359H47.7564V56.3171H41.8376Z" fill="#00CCFF"/>
<path d="M47.7564 56.3171V62.2359H53.6753V56.3171H47.7564Z" fill="#6666FF"/>
<path d="M53.6753 56.3171V62.2359H59.5941V56.3171H53.6753Z" fill="#0099FF"/>
<path d="M59.5941 56.3171V62.2359H65.5129V56.3171H59.5941Z" fill="#00B1FF"/>
<path d="M30 50.3982V56.317H35.9188V50.3982H30Z" fill="#00B1FF"/>
<path d="M35.9188 50.3982V56.317H41.8376V50.3982H35.9188Z" fill="#00CCFF"/>
<path d="M41.8376 50.3982V56.317H47.7564V50.3982H41.8376Z" fill="#0099FF"/>
<path d="M47.7564 50.3982V56.317H53.6753V50.3982H47.7564Z" fill="#00B1FF"/>
<path d="M53.6765 50.3982V56.317H59.5953V50.3982H53.6765Z" fill="#6666FF"/>
<path d="M59.5952 50.3982V56.317H65.5141V50.3982H59.5952Z" fill="#0099FF"/>
<path d="M30 44.4794V50.3983H35.9188V44.4794H30Z" fill="#0099FF"/>
<path d="M35.9188 44.4794V50.3983H41.8376V44.4794H35.9188Z" fill="#0099FF"/>
<path d="M41.8376 44.4794V50.3983H47.7564V44.4794H41.8376Z" fill="#842BFF"/>
<path d="M53.6765 38.5606V44.4794H59.5953V38.5606H53.6765Z" fill="#842BFF"/>
<path d="M35.92 38.5606V44.4794H41.8388V38.5606H35.92Z" fill="#00B1FF"/>
<path d="M53.6753 32.6418V38.5606H59.5941V32.6418H53.6753Z" fill="#6666FF"/>
<path d="M59.5953 32.6418V38.5606H65.5141V32.6418H59.5953Z" fill="#842BFF"/>
<path d="M41.8376 32.6418V38.5606H47.7564V32.6418H41.8376Z" fill="#6666FF"/>
<path d="M47.7576 44.4794V50.3983H53.6764V44.4794H47.7576Z" fill="#6666FF"/>
<path d="M53.6765 44.4794V50.3983H59.5953V44.4794H53.6765Z" fill="#0099FF"/>
<path d="M59.5952 44.4794V50.3983H65.5141V44.4794H59.5952Z" fill="#6666FF"/>
<path d="M59.5952 38.5606V44.4794H65.5141V38.5606H59.5952Z" fill="#6666FF"/>
<path d="M30 74.0735V79.9923H35.9188V74.0735H30Z" fill="#00FFFF"/>
<path d="M35.9188 74.0735V79.9923H41.8376V74.0735H35.9188Z" fill="#00B1FF"/>
<path d="M41.8376 74.0735V79.9923H47.7564V74.0735H41.8376Z" fill="#00FFFF"/>
<path d="M47.7564 74.0735V79.9923H53.6753V74.0735H47.7564Z" fill="#9EFFFA"/>
<path d="M53.6753 74.0735V79.9923H59.5941V74.0735H53.6753Z" fill="#00FFFF"/>
<path d="M59.5941 74.0735V79.9923H65.5129V74.0735H59.5941Z" fill="#9EFFFA"/>
</g>
<path d="M30 71.568L11.8441 59.005C6.70162 55.4495 3.63199 49.7606 3.63199 43.7967V11.6107C3.63199 7.72326 7.01807 4.56119 11.1793 4.56119H48.8207C52.9819 4.56119 56.368 7.72326 56.368 11.6107V43.7932C56.368 49.757 53.2984 55.4424 48.157 59.0015L30 71.568ZM11.1793 5.75586C7.67584 5.75586 4.82666 8.38223 4.82666 11.6107V43.7932C4.82666 49.3636 7.70429 54.6827 12.5233 58.0154L30 70.1185L47.4767 58.019C52.2969 54.6827 55.1733 49.3671 55.1733 43.7967V11.6107C55.1733 8.38223 52.3289 5.75586 48.8207 5.75586H11.1793Z" fill="url(#paint0_linear_281_442)"/>
<path d="M11.4234 26.7253C11.6201 26.6483 11.792 26.5808 11.965 26.5156C17.9834 24.2376 24.0018 21.9585 30.0201 19.6782C30.0612 19.6609 30.1053 19.652 30.1499 19.652C30.1945 19.652 30.2386 19.6609 30.2797 19.6782C34.4847 21.2988 38.6906 22.9185 42.8972 24.5375L48.4261 26.6708L48.5766 26.7348C48.2578 26.8415 47.971 26.9387 47.683 27.0335L34.9671 31.2196C33.4042 31.7339 31.841 32.2475 30.2773 32.7603C30.1969 32.7846 30.1112 32.7846 30.0308 32.7603C26.2856 31.5475 22.5408 30.3327 18.7964 29.1159L11.5573 26.7716C11.5194 26.768 11.4838 26.7502 11.4234 26.7253Z" fill="white"/>
<path d="M41.1099 31.5111V35.5799C40.9037 35.5799 40.7022 35.5644 40.5043 35.5799C39.8394 35.6391 39.1721 35.6841 38.5132 35.7825C37.3998 35.9582 36.3043 36.2327 35.2397 36.6027C33.4613 37.2094 31.7591 38.0199 30.1671 39.0181C30.1378 39.0413 30.1014 39.054 30.064 39.054C30.0265 39.054 29.9902 39.0413 29.9609 39.0181C27.749 37.6624 25.3395 36.6596 22.819 36.0456C21.9272 35.8252 21.0192 35.677 20.1037 35.6024C19.7849 35.5775 19.4637 35.5644 19.1449 35.5467C19.1046 35.5467 19.0643 35.5396 19.0169 35.5348V31.5265C19.2966 31.619 19.568 31.7078 19.8394 31.7991C23.1856 32.9203 26.5313 34.0411 29.8767 35.1615C29.9617 35.1875 30.0525 35.1875 30.1375 35.1615C33.4418 34.0656 36.7453 32.9673 40.048 31.8667L41.1099 31.5111Z" fill="white"/>
<path d="M42.563 39.2326C42.3343 39.0647 42.181 38.8135 42.1363 38.5333C42.0976 38.3198 42.1267 38.0994 42.2196 37.9032C42.3125 37.707 42.4645 37.5448 42.6542 37.4394C42.6834 37.4252 42.7075 37.4023 42.7232 37.3739C42.7389 37.3455 42.7454 37.3129 42.7419 37.2806C42.7419 34.8059 42.7419 32.3313 42.7419 29.8566C42.7385 29.8403 42.7386 29.8235 42.7421 29.8072C42.7456 29.791 42.7525 29.7756 42.7624 29.7622C42.7722 29.7488 42.7847 29.7376 42.7992 29.7294C42.8136 29.7211 42.8297 29.716 42.8462 29.7144C43.1176 29.6385 43.3867 29.5508 43.6759 29.4608V29.6326C43.6759 32.161 43.6759 34.6894 43.6759 37.2178C43.6708 37.2645 43.6793 37.3117 43.7004 37.3537C43.7214 37.3957 43.754 37.4308 43.7944 37.4548C43.931 37.5437 44.0452 37.663 44.1282 37.8033C44.2111 37.9436 44.2605 38.1012 44.2726 38.2637C44.2846 38.4263 44.259 38.5894 44.1976 38.7404C44.1362 38.8914 44.0408 39.0262 43.9188 39.1342L43.8228 39.2208C44.1784 39.4448 44.2815 39.7707 44.2803 40.1689C44.2803 42.5559 44.2803 44.9428 44.2803 47.331V47.5052H42.1161V47.3381C42.1161 44.9594 42.1161 42.5808 42.1161 40.2021C42.1126 39.8074 42.2145 39.4744 42.563 39.2326Z" fill="white"/>
<path d="M47.3641 22.4278C47.2129 22.4284 47.0644 22.4678 46.9328 22.5423C46.8012 22.6168 46.691 22.7239 46.6127 22.8533L30 16.6833L13.3872 22.8533C13.2761 22.6729 13.1033 22.5389 12.901 22.476C12.6986 22.413 12.4803 22.4255 12.2865 22.5111C12.0926 22.5966 11.9363 22.7495 11.8464 22.9414C11.7565 23.1333 11.7391 23.3512 11.7975 23.555C11.8558 23.7587 11.986 23.9344 12.1638 24.0496C12.3417 24.1648 12.5552 24.2117 12.765 24.1816C12.9748 24.1515 13.1666 24.0466 13.3049 23.886C13.4433 23.7255 13.5188 23.5203 13.5176 23.3084C13.5166 23.2595 13.5115 23.2107 13.5022 23.1627L30 17.0353L46.4978 23.1627C46.4885 23.2107 46.4833 23.2595 46.4824 23.3084C46.4821 23.4829 46.5336 23.6535 46.6304 23.7987C46.7271 23.9438 46.8648 24.057 47.0259 24.1239C47.187 24.1909 47.3643 24.2085 47.5354 24.1746C47.7066 24.1407 47.8638 24.0568 47.9872 23.9336C48.1107 23.8103 48.1948 23.6532 48.2289 23.4821C48.263 23.311 48.2456 23.1337 48.1789 22.9725C48.1122 22.8113 47.9992 22.6735 47.8541 22.5765C47.7091 22.4796 47.5386 22.4278 47.3641 22.4278ZM12.6382 23.8607C12.529 23.8607 12.4222 23.8283 12.3314 23.7677C12.2405 23.707 12.1697 23.6207 12.1279 23.5198C12.0861 23.4189 12.0752 23.3078 12.0965 23.2007C12.1178 23.0936 12.1704 22.9951 12.2477 22.9179C12.3249 22.8407 12.4233 22.7881 12.5305 22.7668C12.6376 22.7454 12.7486 22.7564 12.8496 22.7982C12.9505 22.84 13.0367 22.9108 13.0974 23.0016C13.1581 23.0924 13.1905 23.1992 13.1905 23.3084C13.1905 23.3812 13.1761 23.4532 13.1482 23.5203C13.1203 23.5875 13.0794 23.6485 13.0279 23.6998C12.9764 23.7511 12.9152 23.7918 12.8479 23.8194C12.7806 23.847 12.7086 23.8611 12.6358 23.8607H12.6382ZM47.3641 23.8607C47.2549 23.8607 47.1481 23.8283 47.0573 23.7677C46.9665 23.707 46.8957 23.6207 46.8539 23.5198C46.8121 23.4189 46.8011 23.3078 46.8224 23.2007C46.8438 23.0936 46.8964 22.9951 46.9736 22.9179C47.0508 22.8407 47.1492 22.7881 47.2564 22.7668C47.3635 22.7454 47.4746 22.7564 47.5755 22.7982C47.6764 22.84 47.7627 22.9108 47.8233 23.0016C47.884 23.0924 47.9164 23.1992 47.9164 23.3084C47.9164 23.4549 47.8582 23.5954 47.7547 23.699C47.6511 23.8025 47.5106 23.8607 47.3641 23.8607Z" fill="white"/>
</g>
<defs>
<linearGradient id="paint0_linear_281_442" x1="29.8329" y1="0.298077" x2="30.1991" y2="60.5564" gradientUnits="userSpaceOnUse">
<stop stop-color="white"/>
<stop offset="0.27" stop-color="#FDFDFD"/>
<stop offset="0.4" stop-color="#F6F6F6"/>
<stop offset="0.49" stop-color="#E9E9E9"/>
<stop offset="0.51" stop-color="#E5E5E5"/>
<stop offset="0.53" stop-color="#EBEBEB"/>
<stop offset="0.6" stop-color="#F6F6F6"/>
<stop offset="0.71" stop-color="#FDFDFD"/>
<stop offset="1" stop-color="white"/>
</linearGradient>
<clipPath id="clip0_281_442">
<rect width="60" height="76" fill="white"/>
</clipPath>
</defs>
</svg>
