<svg width="128" height="128" viewBox="0 0 128 128" fill="none" xmlns="http://www.w3.org/2000/svg">
<mask id="mask0_194_6873" style="mask-type:luminance" maskUnits="userSpaceOnUse" x="33" y="25" width="31" height="78">
<path d="M64 102.34L43.2012 87.9407C37.357 83.8969 33.9141 77.5277 33.9141 70.7615V33.1911C33.9141 29.0311 37.5467 25.6592 42.0278 25.6592H64V102.34Z" fill="white"/>
</mask>
<g mask="url(#mask0_194_6873)">
<path d="M16.6494 25.7481L16.6494 100.072H63.9999L63.9999 25.7481H16.6494Z" fill="#FF0000"/>
<path d="M28.4871 94.1546V100.073H34.4059V94.1546H28.4871Z" fill="#842BFF"/>
<path d="M34.4058 94.1546V100.073H40.3246V94.1546H34.4058Z" fill="#FFB200"/>
<path d="M40.3247 94.1546V100.073H46.2435V94.1546H40.3247Z" fill="#FFB200"/>
<path d="M46.2434 94.1546V100.073H52.1622V94.1546H46.2434Z" fill="#842BFF"/>
<path d="M52.1624 94.1546V100.073H58.0812V94.1546H52.1624Z" fill="#F9FFB9"/>
<path d="M58.0811 94.1546V100.073H63.9999V94.1546H58.0811Z" fill="#FF9A00"/>
<path d="M28.4871 88.2346V94.1534H34.4059V88.2346H28.4871Z" fill="#FF9A00"/>
<path d="M34.4058 88.2358V94.1546H40.3246V88.2358H34.4058Z" fill="#FF0000"/>
<path d="M40.3247 88.2358V94.1546H46.2435V88.2358H40.3247Z" fill="#842BFF"/>
<path d="M46.2434 88.2358V94.1546H52.1622V88.2358H46.2434Z" fill="#FFD144"/>
<path d="M52.1624 88.2358V94.1546H58.0812V88.2358H52.1624Z" fill="#FF9A00"/>
<path d="M58.0811 88.2358V94.1546H63.9999V88.2358H58.0811Z" fill="#FF7600"/>
<path d="M28.4871 82.3158V88.2346H34.4059V82.3158H28.4871Z" fill="#FFB200"/>
<path d="M34.4058 82.3158V88.2346H40.3246V82.3158H34.4058Z" fill="#842BFF"/>
<path d="M40.3247 82.317V88.2358H46.2435V82.317H40.3247Z" fill="#FF7600"/>
<path d="M46.2434 82.317V88.2358H52.1622V82.317H46.2434Z" fill="#FF9A00"/>
<path d="M52.1624 82.317V88.2358H58.0812V82.317H52.1624Z" fill="#FFD144"/>
<path d="M58.0811 82.317V88.2358H63.9999V82.317H58.0811Z" fill="#FF7600"/>
<path d="M28.4871 76.397V82.3158H34.4059V76.397H28.4871Z" fill="#FF7600"/>
<path d="M34.4058 76.397V82.3158H40.3246V76.397H34.4058Z" fill="#FF9A00"/>
<path d="M40.3247 76.397V82.3158H46.2435V76.397H40.3247Z" fill="#842BFF"/>
<path d="M46.2434 76.3982V82.317H52.1622V76.3982H46.2434Z" fill="#FF7600"/>
<path d="M52.1624 76.3982V82.317H58.0812V76.3982H52.1624Z" fill="#FF9A00"/>
<path d="M58.0811 76.3982V82.317H63.9999V76.3982H58.0811Z" fill="#842BFF"/>
<path d="M28.4871 70.4782V76.397H34.4059V70.4782H28.4871Z" fill="#FF0000"/>
<path d="M40.3247 64.5594V70.4782H46.2435V64.5594H40.3247Z" fill="#FF0000"/>
<path d="M40.3235 58.6406V64.5594H46.2423V58.6406H40.3235Z" fill="#842BFF"/>
<path d="M46.2422 58.6406V64.5594H52.161V58.6406H46.2422Z" fill="#FF0000"/>
<path d="M28.4858 58.6406V64.5594H34.4047V58.6406H28.4858Z" fill="#842BFF"/>
<path d="M34.4058 70.4782V76.397H40.3246V70.4782H34.4058Z" fill="#842BFF"/>
<path d="M40.3247 70.4782V76.397H46.2435V70.4782H40.3247Z" fill="#FF7600"/>
<path d="M46.2434 70.4782V76.397H52.1622V70.4782H46.2434Z" fill="#842BFF"/>
<path d="M46.2434 64.5594V70.4782H52.1622V64.5594H46.2434Z" fill="#842BFF"/>
<path d="M52.1624 70.4794V76.3982H58.0812V70.4794H52.1624Z" fill="#FF9A00"/>
<path d="M58.0811 70.4794V76.3982H63.9999V70.4794H58.0811Z" fill="#FF7600"/>
<path d="M28.4871 100.073V105.992H34.4059V100.073H28.4871Z" fill="#FFD144"/>
<path d="M34.4058 100.073V105.992H40.3246V100.073H34.4058Z" fill="#F9FFB9"/>
<path d="M40.3247 100.073V105.992H46.2435V100.073H40.3247Z" fill="#FFD144"/>
<path d="M46.2434 100.073V105.992H52.1622V100.073H46.2434Z" fill="#F9FFB9"/>
<path d="M52.1624 100.073V105.992H58.0812V100.073H52.1624Z" fill="#FF9A00"/>
<path d="M58.0811 100.073V105.992H63.9999V100.073H58.0811Z" fill="#FFB200"/>
</g>
<mask id="mask1_194_6873" style="mask-type:luminance" maskUnits="userSpaceOnUse" x="64" y="25" width="31" height="78">
<path d="M64 102.34L84.7988 87.9407C90.643 83.8969 94.0859 77.5277 94.0859 70.7615V33.1911C94.0859 29.0311 90.4533 25.6592 85.9721 25.6592H64V102.34Z" fill="white"/>
</mask>
<g mask="url(#mask1_194_6873)">
<path d="M64 25.7481V100.072H111.351V25.7481H64Z" fill="#0000FF"/>
<path d="M64 94.1546V100.073H69.9188V94.1546H64Z" fill="#842BFF"/>
<path d="M69.9187 94.1546V100.073H75.8375V94.1546H69.9187Z" fill="#6666FF"/>
<path d="M75.8376 94.1546V100.073H81.7565V94.1546H75.8376Z" fill="#6666FF"/>
<path d="M81.7563 94.1546V100.073H87.6752V94.1546H81.7563Z" fill="#842BFF"/>
<path d="M87.6753 94.1546V100.073H93.5941V94.1546H87.6753Z" fill="#842BFF"/>
<path d="M93.594 94.1546V100.073H99.5128V94.1546H93.594Z" fill="#6666FF"/>
<path d="M64 88.2358V94.1546H69.9188V88.2358H64Z" fill="#6666FF"/>
<path d="M69.9187 88.2358V94.1546H75.8375V88.2358H69.9187Z" fill="#842BFF"/>
<path d="M75.8376 88.2358V94.1546H81.7565V88.2358H75.8376Z" fill="#842BFF"/>
<path d="M81.7563 88.2358V94.1546H87.6752V88.2358H81.7563Z" fill="#842BFF"/>
<path d="M87.6753 88.2358V94.1546H93.5941V88.2358H87.6753Z" fill="#6666FF"/>
<path d="M93.594 88.2358V94.1546H99.5128V88.2358H93.594Z" fill="#842BFF"/>
<path d="M64 82.317V88.2358H69.9188V82.317H64Z" fill="#6666FF"/>
<path d="M69.9187 82.317V88.2358H75.8375V82.317H69.9187Z" fill="#0099FF"/>
<path d="M75.8376 82.317V88.2358H81.7565V82.317H75.8376Z" fill="#842BFF"/>
<path d="M81.7563 82.317V88.2358H87.6752V82.317H81.7563Z" fill="#6666FF"/>
<path d="M87.6753 82.317V88.2358H93.5941V82.317H87.6753Z" fill="#0099FF"/>
<path d="M93.594 82.317V88.2358H99.5128V82.317H93.594Z" fill="#842BFF"/>
<path d="M64 76.3982V82.317H69.9188V76.3982H64Z" fill="#842BFF"/>
<path d="M69.9187 76.3982V82.317H75.8375V76.3982H69.9187Z" fill="#842BFF"/>
<path d="M75.8376 76.3982V82.317H81.7565V76.3982H75.8376Z" fill="#0099FF"/>
<path d="M81.7563 76.3982V82.317H87.6752V76.3982H81.7563Z" fill="#842BFF"/>
<path d="M87.6765 76.3982V82.317H93.5953V76.3982H87.6765Z" fill="#6666FF"/>
<path d="M93.5952 76.3982V82.317H99.514V76.3982H93.5952Z" fill="#0099FF"/>
<path d="M64 70.4794V76.3982H69.9188V70.4794H64Z" fill="#0099FF"/>
<path d="M69.9187 70.4794V76.3982H75.8375V70.4794H69.9187Z" fill="#0099FF"/>
<path d="M75.8376 70.4794V76.3982H81.7565V70.4794H75.8376Z" fill="#842BFF"/>
<path d="M87.6765 64.5606V70.4794H93.5953V64.5606H87.6765Z" fill="#842BFF"/>
<path d="M69.9199 64.5606V70.4794H75.8387V64.5606H69.9199Z" fill="#842BFF"/>
<path d="M87.6753 58.6417V64.5605H93.5941V58.6417H87.6753Z" fill="#6666FF"/>
<path d="M93.5952 58.6417V64.5605H99.514V58.6417H93.5952Z" fill="#842BFF"/>
<path d="M75.8376 58.6417V64.5605H81.7565V58.6417H75.8376Z" fill="#6666FF"/>
<path d="M81.7576 70.4794V76.3982H87.6764V70.4794H81.7576Z" fill="#6666FF"/>
<path d="M87.6765 70.4794V76.3982H93.5953V70.4794H87.6765Z" fill="#0099FF"/>
<path d="M93.5952 70.4794V76.3982H99.514V70.4794H93.5952Z" fill="#6666FF"/>
<path d="M93.5952 64.5606V70.4794H99.514V64.5606H93.5952Z" fill="#6666FF"/>
<path d="M64 100.073V105.992H69.9188V100.073H64Z" fill="#842BFF"/>
<path d="M69.9187 100.073V105.992H75.8375V100.073H69.9187Z" fill="#842BFF"/>
<path d="M75.8376 100.073V105.992H81.7565V100.073H75.8376Z" fill="#842BFF"/>
<path d="M81.7563 100.073V105.992H87.6752V100.073H81.7563Z" fill="#9EFFFA"/>
<path d="M87.6753 100.073V105.992H93.5941V100.073H87.6753Z" fill="#842BFF"/>
<path d="M93.594 100.073V105.992H99.5128V100.073H93.594Z" fill="#9EFFFA"/>
</g>
<path d="M64.0001 97.568L45.8442 85.005C40.7017 81.4495 37.6321 75.7606 37.6321 69.7967V37.6106C37.6321 33.7232 41.0182 30.5612 45.1793 30.5612H82.8208C86.982 30.5612 90.3681 33.7232 90.3681 37.6106V69.7932C90.3681 75.757 87.2985 81.4423 82.1571 85.0015L64.0001 97.568ZM45.1793 31.7558C41.6759 31.7558 38.8267 34.3822 38.8267 37.6106V69.7932C38.8267 75.3635 41.7044 80.6826 46.5233 84.0154L64.0001 96.1185L81.4768 84.0189C86.297 80.6826 89.1734 75.3671 89.1734 69.7967V37.6106C89.1734 34.3822 86.329 31.7558 82.8208 31.7558H45.1793Z" fill="url(#paint0_linear_194_6873)"/>
<path d="M45.4233 52.7253C45.6201 52.6483 45.7919 52.5807 45.965 52.5155C51.9833 50.2376 58.0017 47.9585 64.0201 45.6782C64.0612 45.6609 64.1053 45.652 64.1499 45.652C64.1944 45.652 64.2386 45.6609 64.2796 45.6782C68.4847 47.2987 72.6905 48.9185 76.8971 50.5375L82.426 52.6708L82.5765 52.7348C82.2577 52.8415 81.9709 52.9386 81.6829 53.0335L68.967 57.2195C67.4042 57.7339 65.8409 58.2475 64.2773 58.7603C64.1969 58.7845 64.1111 58.7845 64.0307 58.7603C60.2856 57.5474 56.5408 56.3326 52.7964 55.1158L45.5573 52.7715C45.5193 52.768 45.4838 52.7502 45.4233 52.7253Z" fill="white"/>
<path d="M75.1099 57.5111V61.5799C74.9037 61.5799 74.7022 61.5644 74.5043 61.5799C73.8394 61.6391 73.1721 61.6841 72.5131 61.7825C71.3998 61.9582 70.3043 62.2327 69.2397 62.6027C67.4613 63.2094 65.7591 64.0199 64.1671 65.0181C64.1377 65.0413 64.1014 65.054 64.064 65.054C64.0265 65.054 63.9902 65.0413 63.9608 65.0181C61.749 63.6624 59.3395 62.6596 56.8189 62.0456C55.9272 61.8252 55.0192 61.677 54.1037 61.6024C53.7848 61.5775 53.4637 61.5644 53.1448 61.5467C53.1046 61.5467 53.0643 61.5396 53.0168 61.5348V57.5265C53.2965 57.619 53.568 57.7078 53.8394 57.7991C57.1855 58.9203 60.5313 60.0411 63.8767 61.1615C63.9617 61.1875 64.0525 61.1875 64.1374 61.1615C67.4417 60.0656 70.7452 58.9673 74.048 57.8667L75.1099 57.5111Z" fill="white"/>
<path d="M76.5629 65.2326C76.3342 65.0647 76.1809 64.8135 76.1362 64.5333C76.0975 64.3198 76.1266 64.0994 76.2195 63.9032C76.3124 63.707 76.4644 63.5448 76.6541 63.4394C76.6833 63.4252 76.7074 63.4023 76.7231 63.3739C76.7388 63.3455 76.7454 63.3129 76.7418 63.2806C76.7418 60.8059 76.7418 58.3313 76.7418 55.8566C76.7384 55.8403 76.7385 55.8235 76.742 55.8072C76.7455 55.791 76.7524 55.7756 76.7623 55.7622C76.7721 55.7488 76.7847 55.7376 76.7991 55.7294C76.8136 55.7211 76.8296 55.716 76.8461 55.7144C77.1175 55.6385 77.3866 55.5508 77.6758 55.4608V55.6326C77.6758 58.161 77.6758 60.6894 77.6758 63.2178C77.6708 63.2645 77.6793 63.3117 77.7003 63.3537C77.7213 63.3957 77.7539 63.4308 77.7943 63.4548C77.9309 63.5437 78.0451 63.663 78.1281 63.8033C78.211 63.9436 78.2605 64.1012 78.2725 64.2637C78.2845 64.4263 78.2589 64.5894 78.1975 64.7404C78.1362 64.8914 78.0407 65.0262 77.9187 65.1342L77.8227 65.2208C78.1783 65.4448 78.2814 65.7707 78.2802 66.1689C78.2802 68.5559 78.2802 70.9428 78.2802 73.331V73.5052H76.1161V73.3381C76.1161 70.9594 76.1161 68.5808 76.1161 66.2021C76.1125 65.8074 76.2144 65.4744 76.5629 65.2326Z" fill="white"/>
<path d="M81.3643 48.4279C81.213 48.4284 81.0645 48.4678 80.9329 48.5423C80.8013 48.6169 80.6911 48.724 80.6128 48.8534L64.0001 42.6833L47.3874 48.8534C47.2762 48.673 47.1035 48.5389 46.9011 48.476C46.6988 48.4131 46.4805 48.4255 46.2866 48.5111C46.0927 48.5967 45.9364 48.7495 45.8465 48.9414C45.7566 49.1333 45.7392 49.3513 45.7976 49.555C45.8559 49.7587 45.9861 49.9344 46.1639 50.0496C46.3418 50.1648 46.5554 50.2117 46.7651 50.1816C46.9749 50.1516 47.1667 50.0466 47.305 49.8861C47.4434 49.7256 47.5189 49.5204 47.5177 49.3085C47.5168 49.2595 47.5116 49.2108 47.5023 49.1627L64.0001 43.0353L80.4979 49.1627C80.4886 49.2108 80.4834 49.2595 80.4825 49.3085C80.4822 49.4829 80.5338 49.6535 80.6305 49.7987C80.7273 49.9438 80.8649 50.057 81.026 50.124C81.1871 50.1909 81.3644 50.2085 81.5355 50.1746C81.7067 50.1407 81.8639 50.0569 81.9873 49.9336C82.1108 49.8103 82.1949 49.6532 82.229 49.4821C82.2631 49.311 82.2457 49.1337 82.179 48.9725C82.1123 48.8113 81.9993 48.6735 81.8543 48.5766C81.7092 48.4796 81.5387 48.4279 81.3643 48.4279ZM46.6383 49.8608C46.5291 49.8608 46.4223 49.8284 46.3315 49.7677C46.2407 49.707 46.1699 49.6207 46.1281 49.5198C46.0863 49.4189 46.0753 49.3079 46.0966 49.2007C46.118 49.0936 46.1706 48.9952 46.2478 48.9179C46.325 48.8407 46.4234 48.7881 46.5306 48.7668C46.6377 48.7455 46.7488 48.7564 46.8497 48.7982C46.9506 48.84 47.0369 48.9108 47.0975 49.0016C47.1582 49.0925 47.1906 49.1992 47.1906 49.3085C47.1906 49.3812 47.1763 49.4532 47.1484 49.5204C47.1205 49.5875 47.0796 49.6485 47.028 49.6998C46.9765 49.7512 46.9153 49.7918 46.848 49.8194C46.7808 49.847 46.7087 49.8611 46.636 49.8608H46.6383ZM81.3643 49.8608C81.255 49.8608 81.1482 49.8284 81.0574 49.7677C80.9666 49.707 80.8958 49.6207 80.854 49.5198C80.8122 49.4189 80.8013 49.3079 80.8226 49.2007C80.8439 49.0936 80.8965 48.9952 80.9737 48.9179C81.051 48.8407 81.1494 48.7881 81.2565 48.7668C81.3636 48.7455 81.4747 48.7564 81.5756 48.7982C81.6765 48.84 81.7628 48.9108 81.8235 49.0016C81.8842 49.0925 81.9165 49.1992 81.9165 49.3085C81.9165 49.455 81.8584 49.5954 81.7548 49.699C81.6512 49.8026 81.5107 49.8608 81.3643 49.8608Z" fill="white"/>
<defs>
<linearGradient id="paint0_linear_194_6873" x1="63.833" y1="26.298" x2="64.1992" y2="86.5564" gradientUnits="userSpaceOnUse">
<stop stop-color="white"/>
<stop offset="0.27" stop-color="#FDFDFD"/>
<stop offset="0.4" stop-color="#F6F6F6"/>
<stop offset="0.49" stop-color="#E9E9E9"/>
<stop offset="0.51" stop-color="#E5E5E5"/>
<stop offset="0.53" stop-color="#EBEBEB"/>
<stop offset="0.6" stop-color="#F6F6F6"/>
<stop offset="0.71" stop-color="#FDFDFD"/>
<stop offset="1" stop-color="white"/>
</linearGradient>
</defs>
</svg>
